<mxfile host="app.diagrams.net" modified="2023-10-20T07:13:27.196Z" agent="Mozilla/5.0 (Windows NT 10.0; Win64; x64) AppleWebKit/537.36 (KHTML, like Gecko) Chrome/118.0.0.0 Safari/537.36" version="22.0.5" etag="OuKkTO8H2oGxc4tLST6M" type="device">
  <diagram id="Omh48rL1B8c3v4fKGW20" name="Page-1">
    <mxGraphModel dx="1434" dy="750" grid="1" gridSize="10" guides="1" tooltips="1" connect="1" arrows="1" fold="1" page="1" pageScale="1" pageWidth="827" pageHeight="1169" math="0" shadow="0">
      <root>
        <mxCell id="0" />
        <mxCell id="1" parent="0" />
        <mxCell id="UtIAVN8uJLFydxZra8zJ-3" value="Delay&lt;br&gt;(Distribution)" style="edgeStyle=orthogonalEdgeStyle;rounded=0;orthogonalLoop=1;jettySize=auto;html=1;exitX=0.5;exitY=1;exitDx=0;exitDy=0;" edge="1" parent="1" source="UtIAVN8uJLFydxZra8zJ-1" target="UtIAVN8uJLFydxZra8zJ-2">
          <mxGeometry relative="1" as="geometry" />
        </mxCell>
        <mxCell id="UtIAVN8uJLFydxZra8zJ-1" value="Ready" style="rounded=1;whiteSpace=wrap;html=1;fillColor=#e3c800;strokeColor=#B09500;fontColor=#000000;" vertex="1" parent="1">
          <mxGeometry x="350" y="330" width="120" height="60" as="geometry" />
        </mxCell>
        <mxCell id="UtIAVN8uJLFydxZra8zJ-4" value="Delay&lt;br&gt;(Random)" style="edgeStyle=orthogonalEdgeStyle;rounded=0;orthogonalLoop=1;jettySize=auto;html=1;exitX=1;exitY=0.5;exitDx=0;exitDy=0;entryX=1;entryY=0.5;entryDx=0;entryDy=0;" edge="1" parent="1" source="UtIAVN8uJLFydxZra8zJ-2" target="UtIAVN8uJLFydxZra8zJ-1">
          <mxGeometry relative="1" as="geometry" />
        </mxCell>
        <mxCell id="UtIAVN8uJLFydxZra8zJ-2" value="Go" style="rounded=1;whiteSpace=wrap;html=1;fillColor=#6d8764;fontColor=#ffffff;strokeColor=#3A5431;" vertex="1" parent="1">
          <mxGeometry x="350" y="490" width="120" height="60" as="geometry" />
        </mxCell>
      </root>
    </mxGraphModel>
  </diagram>
</mxfile>
